<?xml version="1.0" standalone="no"?>
<!DOCTYPE svg PUBLIC "-//W3C//DTD SVG 20010904//EN"
 "http://www.w3.org/TR/2001/REC-SVG-20010904/DTD/svg10.dtd">
<svg version="1.0" xmlns="http://www.w3.org/2000/svg"
 width="256.000000pt" height="256.000000pt" viewBox="0 0 256.000000 256.000000"
 preserveAspectRatio="xMidYMid meet">

<g transform="translate(0.000000,256.000000) scale(0.100000,-0.100000)"
fill="#000000" stroke="none">
<path d="M1381 2386 l-154 -81 -24 -68 c-14 -38 -22 -71 -19 -75 3 -3 21 3 38
12 l33 17 219 -80 c121 -45 221 -81 223 -81 1 0 9 -13 18 -30 l15 -29 -62 23
c-35 13 -141 52 -237 87 l-174 63 -63 -34 c-51 -27 -66 -41 -79 -72 -8 -22
-13 -43 -10 -48 3 -5 -6 -40 -20 -79 -23 -63 -24 -74 -12 -97 13 -26 14 -25
43 52 25 67 35 82 65 98 25 14 44 17 65 12 l29 -8 -44 -23 c-55 -28 -64 -49
-40 -97 13 -25 29 -40 54 -48 31 -10 40 -9 80 14 43 23 48 24 85 11 45 -16 44
-16 29 19 -15 33 -34 39 -69 21 -22 -11 -36 -12 -57 -5 -15 6 -34 13 -40 15
-18 6 -6 31 20 42 38 16 93 7 200 -31 l104 -37 32 -67 32 -67 -54 -149 c-33
-89 -61 -153 -72 -158 -16 -10 -48 -4 -104 19 -9 4 -6 -8 9 -32 20 -33 21 -38
6 -32 -10 4 -22 7 -27 7 -4 0 -27 34 -50 76 -33 59 -46 75 -60 71 -10 -3 -58
10 -106 28 -83 31 -90 32 -118 18 -16 -9 -31 -17 -33 -18 -2 -2 11 -31 28 -65
27 -54 30 -66 21 -93 -6 -16 -9 -32 -7 -34 9 -9 45 23 51 45 4 17 10 22 23 17
43 -16 73 -17 97 -1 34 22 58 13 78 -29 l17 -35 -42 -21 c-27 -14 -51 -19 -70
-15 -20 4 -44 -2 -79 -20 -45 -22 -55 -24 -85 -14 -20 7 -37 10 -38 8 -11 -13
-35 -103 -29 -109 5 -3 43 -19 86 -34 l78 -28 47 25 c26 14 55 23 65 21 10 -3
31 -31 47 -63 l29 -58 -152 -80 c-161 -85 -161 -84 -199 -187 l-23 -60 -135
-72 c-74 -39 -136 -68 -138 -64 -1 4 22 74 53 156 l54 150 -40 73 c-49 89 -47
109 14 139 39 19 46 28 67 85 12 34 33 91 45 124 l23 61 -29 52 c-29 51 -30
51 -54 35 -29 -19 -41 -55 -27 -80 10 -19 -22 -134 -38 -134 -18 0 -20 40 -6
75 12 28 13 42 5 57 -8 15 -8 31 0 57 8 30 20 41 58 60 45 22 48 22 60 5 7
-10 13 -23 13 -28 1 -21 19 21 69 159 45 122 50 143 40 168 -7 15 -22 30 -36
33 -18 5 -22 11 -17 23 26 60 -18 106 -74 77 -16 -8 -32 -25 -35 -36 -4 -17
-11 -20 -26 -15 -27 8 -80 -20 -91 -51 -6 -14 -16 -24 -22 -22 -7 1 -27 -5
-43 -14 -24 -13 -36 -32 -60 -100 -17 -46 -41 -93 -55 -106 -34 -32 -132 -300
-119 -324 7 -13 2 -40 -16 -91 -22 -60 -32 -76 -60 -91 -30 -17 -38 -32 -99
-200 -36 -99 -66 -188 -66 -197 0 -8 6 -23 13 -34 14 -18 22 1 118 268 12 35
44 66 55 54 3 -2 -14 -55 -37 -117 -33 -91 -39 -117 -31 -135 9 -18 5 -39 -18
-101 l-29 -77 34 -62 34 -61 -33 -87 -33 -88 36 -69 c20 -39 39 -69 42 -67 3
1 330 175 727 386 l720 384 43 119 c39 110 45 120 78 137 36 19 37 19 101 -5
36 -13 66 -24 67 -24 2 0 -14 29 -33 65 l-36 66 52 -21 c28 -11 50 -17 48 -13
-2 5 -18 36 -36 70 l-32 63 50 -20 c28 -11 53 -20 55 -20 2 0 -8 21 -22 47
l-26 46 28 -7 27 -7 -30 55 -31 54 22 61 c12 34 24 61 27 61 3 0 25 -37 50
-83 l44 -83 -37 -103 c-36 -100 -37 -103 -20 -132 20 -34 28 -35 68 -10 24 14
36 36 62 110 l32 92 -83 156 -84 157 18 45 c10 25 22 45 27 44 4 -1 17 -5 27
-9 16 -6 9 12 -31 87 -27 52 -76 142 -107 201 l-57 107 -64 21 c-36 12 -65 26
-65 31 0 5 4 9 8 9 5 0 16 6 26 13 16 12 7 18 -89 52 -92 33 -105 40 -91 51
15 10 12 14 -26 27 -24 8 -86 30 -138 50 l-95 34 -154 -81z m-500 -650 c-51
-141 -79 -191 -97 -173 -8 8 110 322 125 334 34 25 28 -8 -28 -161z m-63 92
c-68 -196 -95 -261 -111 -270 -10 -5 -21 -8 -23 -6 -5 6 86 259 99 276 5 6 16
12 24 12 8 0 13 -6 11 -12z m1061 -18 c10 -5 24 -23 31 -39 10 -26 9 -40 -14
-108 -24 -72 -30 -80 -70 -102 -31 -17 -51 -22 -71 -17 -18 5 -35 2 -52 -9
-14 -9 -26 -15 -27 -13 -2 2 18 62 45 133 38 106 53 133 76 147 32 20 56 22
82 8z m-889 -22 c0 -7 -19 -66 -42 -130 -39 -107 -57 -134 -72 -109 -5 7 27
105 73 224 11 27 41 38 41 15z m-302 -111 c-107 -292 -116 -322 -109 -336 6
-9 -1 -42 -17 -87 -22 -61 -32 -75 -60 -88 -33 -16 -33 -16 -27 6 4 13 13 37
20 55 10 24 11 39 3 61 -9 24 -5 43 26 127 21 55 46 107 56 115 11 8 35 60 55
115 34 93 57 131 76 120 4 -3 -6 -42 -23 -88z m490 -183 c36 -10 25 -23 -18
-22 -27 0 -40 5 -40 14 0 15 21 18 58 8z m565 -43 l24 -10 -70 -194 -71 -194
-60 -31 c-33 -17 -61 -30 -63 -28 -2 1 15 52 37 112 34 90 39 113 30 134 -17
41 10 92 58 114 32 14 44 28 57 62 18 47 21 49 58 35z m56 -207 c3 -3 -4 -30
-14 -60 -16 -46 -25 -59 -58 -75 -21 -11 -41 -19 -43 -16 -2 2 2 19 9 38 8 19
22 56 32 82 16 45 19 48 44 42 14 -4 28 -9 30 -11z"/>
<path d="M1828 1778 c-15 -12 -81 -178 -74 -185 11 -11 34 14 46 50 11 31 21
43 39 45 18 3 22 8 18 28 -4 20 -1 23 14 19 21 -7 24 6 9 36 -12 22 -30 24
-52 7z"/>
<path d="M1820 1649 c-12 -22 -8 -35 8 -25 13 8 22 46 11 46 -4 0 -13 -9 -19
-21z"/>
<path d="M1320 1790 c-12 -8 -12 -10 3 -16 21 -8 35 2 21 16 -5 5 -15 6 -24 0z"/>
<path d="M1170 1705 c0 -4 5 -15 10 -26 13 -23 15 -23 -45 -3 -46 16 -49 16
-62 -1 -26 -36 -8 -80 22 -55 11 9 23 9 45 1 40 -13 56 -6 69 31 6 17 10 32 9
33 -13 10 -48 24 -48 20z"/>
</g>
</svg>
